<svg width="320" height="320" viewBox="0 0 320 320" fill="none" xmlns="http://www.w3.org/2000/svg">
<path d="M119.104 245.519V228.191H130.624V230.991H122.272V235.439H130.16V238.239H122.272V242.751H130.624V245.551H119.104V245.519Z" fill="#FEB972"/>
<path d="M132.944 245.519V228.191H139.392C140.576 228.191 141.616 228.399 142.512 228.831C143.424 229.263 144.128 229.871 144.64 230.687C145.152 231.503 145.408 232.495 145.408 233.647C145.408 234.799 145.12 235.855 144.56 236.687C144 237.519 143.232 238.143 142.272 238.543L146.256 245.503H142.672L138.416 237.903L140.464 239.119H136.112V245.519H132.944ZM136.112 236.335H139.44C140.016 236.335 140.512 236.223 140.928 235.999C141.344 235.775 141.664 235.455 141.904 235.055C142.128 234.655 142.256 234.191 142.256 233.663C142.256 233.135 142.144 232.655 141.904 232.255C141.664 231.855 141.344 231.551 140.928 231.327C140.512 231.103 140.016 230.991 139.44 230.991H136.112V236.335Z" fill="#FEB972"/>
<path d="M148.32 245.519V228.191H154.768C155.952 228.191 156.992 228.399 157.888 228.831C158.8 229.263 159.504 229.871 160.016 230.687C160.528 231.503 160.784 232.495 160.784 233.647C160.784 234.799 160.496 235.855 159.936 236.687C159.376 237.519 158.608 238.143 157.648 238.543L161.632 245.503H158.048L153.792 237.903L155.84 239.119H151.488V245.519H148.32ZM151.488 236.335H154.816C155.392 236.335 155.888 236.223 156.304 235.999C156.72 235.775 157.04 235.455 157.28 235.055C157.504 234.655 157.632 234.191 157.632 233.663C157.632 233.135 157.52 232.655 157.28 232.255C157.04 231.855 156.72 231.551 156.304 231.327C155.888 231.103 155.392 230.991 154.816 230.991H151.488V236.335Z" fill="#FEB972"/>
<path d="M172.24 245.792C170.976 245.792 169.776 245.568 168.688 245.12C167.584 244.672 166.624 244.048 165.808 243.232C164.992 242.432 164.352 241.472 163.888 240.384C163.424 239.296 163.2 238.112 163.2 236.832C163.2 235.552 163.424 234.352 163.872 233.28C164.32 232.192 164.96 231.248 165.776 230.448C166.592 229.648 167.552 229.024 168.656 228.576C169.76 228.128 170.944 227.92 172.24 227.92C173.536 227.92 174.72 228.144 175.824 228.592C176.928 229.04 177.888 229.664 178.704 230.464C179.52 231.264 180.16 232.208 180.624 233.296C181.088 234.384 181.312 235.568 181.312 236.848C181.312 238.128 181.072 239.296 180.608 240.4C180.144 241.488 179.504 242.448 178.672 243.248C177.84 244.048 176.896 244.688 175.808 245.136C174.72 245.584 173.52 245.808 172.24 245.808V245.792ZM172.24 242.912C173.088 242.912 173.872 242.768 174.592 242.464C175.296 242.16 175.936 241.744 176.464 241.2C176.992 240.656 177.408 240.016 177.696 239.264C177.984 238.512 178.128 237.712 178.128 236.848C178.128 235.984 177.984 235.184 177.696 234.448C177.408 233.712 176.992 233.072 176.464 232.512C175.936 231.968 175.296 231.536 174.592 231.248C173.872 230.96 173.088 230.8 172.24 230.8C171.392 230.8 170.624 230.944 169.92 231.248C169.2 231.536 168.576 231.968 168.048 232.512C167.52 233.056 167.104 233.712 166.8 234.448C166.496 235.184 166.352 235.984 166.352 236.848C166.352 237.712 166.496 238.528 166.8 239.264C167.088 240 167.504 240.656 168.048 241.2C168.576 241.744 169.216 242.16 169.92 242.464C170.624 242.768 171.408 242.912 172.24 242.912Z" fill="#FEB972"/>
<path d="M184.128 245.519V228.191H190.576C191.76 228.191 192.8 228.399 193.696 228.831C194.608 229.263 195.312 229.871 195.824 230.687C196.336 231.503 196.592 232.495 196.592 233.647C196.592 234.799 196.304 235.855 195.744 236.687C195.184 237.519 194.416 238.143 193.456 238.543L197.44 245.503H193.856L189.6 237.903L191.648 239.119H187.296V245.519H184.128ZM187.296 236.335H190.624C191.2 236.335 191.696 236.223 192.112 235.999C192.528 235.775 192.848 235.455 193.088 235.055C193.312 234.655 193.44 234.191 193.44 233.663C193.44 233.135 193.328 232.655 193.088 232.255C192.848 231.855 192.528 231.551 192.112 231.327C191.696 231.103 191.2 230.991 190.624 230.991H187.296V236.335Z" fill="#FEB972"/>
<path d="M188.4 151.583C188.4 172.159 184.96 187.215 178.064 196.783C171.168 206.351 160.624 211.135 146.416 211.135C132.208 211.135 122.064 206.143 115.008 196.143C107.952 186.159 104.432 171.295 104.432 151.567C104.432 131.839 107.872 115.727 114.768 106.079C121.664 96.4312 132.208 91.6152 146.416 91.6152C160.624 91.6152 170.704 96.6392 177.792 106.687C184.864 116.735 188.4 131.695 188.4 151.583ZM135.68 151.583C135.68 164.735 136.496 173.775 138.144 178.703C139.792 183.631 142.544 186.095 146.416 186.095C150.288 186.095 153.104 183.551 154.72 178.463C156.336 173.375 157.152 164.415 157.152 151.583C157.152 138.751 156.336 129.679 154.688 124.511C153.04 119.343 150.288 116.751 146.416 116.751C142.544 116.751 139.792 119.247 138.144 124.223C136.496 129.199 135.68 138.319 135.68 151.583Z" fill="#FDECD6"/>
<path d="M96.24 187.039H83.44V200.111C83.44 205.311 79.216 209.535 74.016 209.535H61.856C56.656 209.535 52.432 205.311 52.432 200.111V187.039H15.488C10.288 187.039 6.064 182.815 6.064 177.615V166.895C6.064 164.991 6.64 163.135 7.712 161.567L51.6 97.3913C53.36 94.8153 56.272 93.2793 59.376 93.2793H74C79.2 93.2793 83.424 97.5033 83.424 102.703V163.567H86.8C92 163.567 96.224 167.791 96.224 172.991V187.023L96.24 187.039ZM52.432 163.583V150.063C52.432 147.519 52.528 144.095 52.704 139.759C52.896 135.439 53.04 133.167 53.136 132.959H52.256C50.448 137.039 48.416 140.863 46.128 144.415L33.248 163.583H52.416H52.432Z" fill="#FDECD6"/>
<path d="M83.68 210.065H64.208C60.496 210.065 57.472 207.041 57.472 203.329V187.569H17.856C14.144 187.569 11.12 184.545 11.12 180.833V165.329C11.12 163.969 11.52 162.657 12.288 161.521L57.904 94.8167C59.168 92.9767 61.232 91.8887 63.472 91.8887H83.68C87.392 91.8887 90.416 94.9127 90.416 98.6247V151.345C90.416 151.873 89.984 152.321 89.44 152.321C88.896 152.321 88.464 151.889 88.464 151.345V98.6087C88.464 95.9687 86.304 93.8087 83.664 93.8087H63.456C61.872 93.8087 60.384 94.5927 59.488 95.9047L13.888 162.609C13.344 163.409 13.056 164.353 13.056 165.313V180.817C13.056 183.457 15.216 185.617 17.856 185.617H59.424V203.329C59.424 205.969 61.584 208.129 64.224 208.129H83.696C86.336 208.129 88.496 205.969 88.496 203.329V185.617H101.296V168.897C101.296 166.257 99.152 164.097 96.496 164.097H89.456C88.928 164.097 88.48 163.665 88.48 163.121C88.48 162.577 88.912 162.145 89.456 162.145H96.496C100.208 162.145 103.232 165.169 103.232 168.881V187.537H90.432V203.297C90.432 207.009 87.408 210.033 83.696 210.033L83.68 210.065ZM59.408 164.097H37.456L51.36 143.425C53.584 139.953 55.632 136.145 57.408 132.129L57.664 131.553H60.752L60.032 132.961C60.032 132.961 59.92 134.001 59.696 139.361C59.504 143.601 59.424 147.057 59.424 149.617V164.097H59.408ZM41.088 162.161H57.472V149.617C57.472 147.025 57.568 143.553 57.744 139.281C57.808 137.745 57.872 136.545 57.92 135.617C56.416 138.737 54.752 141.713 52.976 144.497L41.104 162.161H41.088Z" fill="#F67011"/>
<path d="M288.144 187.039H275.344V200.111C275.344 205.311 271.12 209.535 265.92 209.535H253.76C248.56 209.535 244.336 205.311 244.336 200.111V187.039H207.408C202.208 187.039 197.984 182.815 197.984 177.615V166.895C197.984 164.991 198.56 163.135 199.632 161.567L243.52 97.3913C245.28 94.8153 248.192 93.2793 251.296 93.2793H265.92C271.12 93.2793 275.344 97.5033 275.344 102.703V163.567H278.72C283.92 163.567 288.144 167.791 288.144 172.991V187.023V187.039ZM244.336 163.583V150.063C244.336 147.519 244.432 144.095 244.608 139.759C244.8 135.439 244.944 133.167 245.04 132.959H244.16C242.352 137.039 240.32 140.863 238.032 144.415L225.152 163.583H244.32H244.336Z" fill="#FDECD6"/>
<path d="M275.584 210.065H256.112C252.4 210.065 249.376 207.041 249.376 203.329V186.593C249.376 186.065 249.808 185.617 250.352 185.617C250.896 185.617 251.328 186.049 251.328 186.593V203.329C251.328 205.969 253.488 208.129 256.128 208.129H275.6C278.24 208.129 280.4 205.969 280.4 203.329V185.617H293.2V168.897C293.2 166.257 291.056 164.097 288.4 164.097H280.4V98.6087C280.4 95.9687 278.24 93.8087 275.6 93.8087H255.392C253.808 93.8087 252.32 94.5927 251.424 95.9047L205.808 162.609C205.264 163.409 204.976 164.353 204.976 165.313V180.817C204.976 183.457 207.136 185.617 209.776 185.617H238.88C239.408 185.617 239.856 186.049 239.856 186.593C239.856 187.137 239.424 187.569 238.88 187.569H209.776C206.064 187.569 203.04 184.545 203.04 180.833V165.329C203.04 163.969 203.44 162.657 204.208 161.521L249.824 94.8167C251.088 92.9767 253.152 91.8887 255.392 91.8887H275.6C279.312 91.8887 282.336 94.9127 282.336 98.6247V162.177H288.4C292.112 162.177 295.136 165.201 295.136 168.913V187.569H282.336V203.329C282.336 207.041 279.312 210.065 275.6 210.065H275.584ZM251.312 164.097H229.36L243.264 143.425C245.488 139.953 247.536 136.145 249.312 132.129L249.568 131.553H252.656L251.936 132.961C251.936 132.961 251.824 134.001 251.6 139.361C251.408 143.601 251.328 147.057 251.328 149.617V164.097H251.312ZM232.992 162.161H249.376V149.617C249.376 147.025 249.472 143.553 249.648 139.281C249.712 137.745 249.776 136.545 249.824 135.617C248.32 138.737 246.656 141.713 244.88 144.497L233.008 162.161H232.992Z" fill="#F67011"/>
<path d="M152.432 211.663C138.272 211.663 127.44 206.479 120.224 196.255C113.088 186.143 109.472 170.959 109.472 151.119C109.472 131.279 113.008 114.847 119.984 105.071C127.04 95.1994 137.952 90.1914 152.416 90.1914C161.744 90.1914 169.68 92.4794 176.032 96.9914C176.464 97.2954 176.576 97.9034 176.256 98.3354C175.936 98.7674 175.344 98.8794 174.912 98.5594C168.912 94.2874 161.344 92.1274 152.432 92.1274C138.624 92.1274 128.24 96.8634 121.568 106.191C114.832 115.631 111.408 130.735 111.408 151.119C111.408 171.503 114.912 185.359 121.808 195.135C128.64 204.815 138.928 209.711 152.432 209.711C165.936 209.711 176.624 205.023 183.296 195.759C190.032 186.399 193.456 171.375 193.456 151.119C193.456 130.863 189.952 116.623 183.024 106.783C182.72 106.351 182.816 105.743 183.264 105.439C183.696 105.135 184.304 105.231 184.608 105.679C191.776 115.839 195.408 131.135 195.408 151.135C195.408 171.135 191.872 187.215 184.88 196.911C177.824 206.703 166.912 211.663 152.448 211.663H152.432ZM152.432 186.607C148.112 186.607 145.024 183.903 143.248 178.543C141.552 173.471 140.736 164.495 140.736 151.119C140.736 137.743 141.552 128.591 143.248 123.455C145.024 118.047 148.112 115.311 152.432 115.311C156.752 115.311 159.84 118.143 161.632 123.743C163.296 128.975 164.144 138.191 164.144 151.119C164.144 164.047 163.312 173.135 161.68 178.287C159.92 183.807 156.816 186.591 152.448 186.591L152.432 186.607ZM152.432 117.263C148.992 117.263 146.592 119.487 145.088 124.063C143.488 128.927 142.672 138.031 142.672 151.119C142.672 164.207 143.488 173.119 145.088 177.935C146.592 182.463 149.008 184.671 152.432 184.671C155.856 184.671 158.336 182.399 159.824 177.711C161.408 172.735 162.208 163.791 162.208 151.119C162.208 138.447 161.392 129.391 159.792 124.335C158.272 119.567 155.872 117.263 152.448 117.263H152.432Z" fill="#F67011"/>
<path d="M16.848 121.857C16.16 121.857 15.6 121.057 15.648 120.113C15.776 117.905 16.704 115.889 18.16 114.817C20.048 113.441 22.4 113.985 23.888 116.161C24.208 110.737 26.864 106.097 30.576 104.449C34.464 102.737 38.784 104.609 41.28 109.137C41.52 108.801 43.632 105.889 46.512 106.465C49.232 107.009 51.488 110.433 51.744 114.833C52.288 114.641 53.632 114.305 55.024 115.169C56.448 116.049 57.472 117.889 57.872 120.129C58.064 121.169 57.472 122.177 56.704 122.177C43.408 122.065 30.128 121.969 16.832 121.857H16.848Z" fill="#FA913E"/>
<path d="M272.864 192.751C272.176 192.751 271.616 191.951 271.664 191.007C271.792 188.799 272.72 186.783 274.176 185.711C276.064 184.335 278.416 184.879 279.904 187.055C280.224 181.631 282.88 176.991 286.592 175.343C290.48 173.631 294.8 175.503 297.296 180.031C297.536 179.695 299.648 176.783 302.528 177.359C305.248 177.903 307.504 181.327 307.76 185.727C308.304 185.535 309.648 185.199 311.04 186.063C312.464 186.943 313.488 188.783 313.888 191.023C314.08 192.063 313.488 193.071 312.72 193.071C299.424 192.959 286.144 192.863 272.848 192.751H272.864Z" fill="#FA913E"/>
</svg>
